# xmcd
#
# Track frame offsets: 
#        150
#        29055
#        57842
#        72437
#        104547
#        127367
#        142320
#        165362
#        182280
#        206642
#        211497
#        226860
#
# Disc length: 3195 seconds
#
# Revision: 2
# Processed by: cddbd v1.5.2PL0 Copyright (c) Steve Scherf et al.
# Submitted via: ExactAudioCopy v0.99pb4
#
DISCID=b90c790c
DTITLE=Jon Butcher - Electric Factory
DYEAR=1996
DGENRE=Blues
TTITLE0=Rocket Ship
TTITLE1=Chili Sauce
TTITLE2=Rather Go Fishin'
TTITLE3=Cactus Flower
TTITLE4=A Sea Of Blues
TTITLE5=The Fireman's Ball
TTITLE6=Gambler
TTITLE7=Yes, She Does
TTITLE8=Brian's Electric Factory
TTITLE9=-Instrumental--
TTITLE10=The Coleman Mine
TTITLE11=By Railroad Line
EXTD=
EXTT0=
EXTT1=
EXTT2=
EXTT3=
EXTT4=
EXTT5=
EXTT6=
EXTT7=
EXTT8=
EXTT9=
EXTT10=
EXTT11=
PLAYORDER=
